# xmcd
# 
# Track frame offsets:
#     150
#     8667
#     25734
#     38572
#     53459
#     71806
#     81377
#     100254
#     112942
#     124692
#     145645
#     157019
#     170576
#     186270
#     198252
#     207330
#     222893
#     233930
#     244581
#     258083
#     282495
# 
# Disc length: 3817 seconds
# 
# Revision: 6
# Processed by: cddbd v1.5.1PL0 Copyright (c) Steve Scherf et al.
# Submitted via: BonkEnc v1.0beta1
# 
DISCID=200ee715
DTITLE=Country I. - Prvni velky cesky country zpevnik A - C
DYEAR=2002
DGENRE=Country
TTITLE0=Montgomery - Aljaska
TTITLE1=Drobek - Abych tu zil
TTITLE2=Lava - Agnes
TTITLE3=Paberky - Alabama
TTITLE4=P.Spaleny - Az me andele
TTITLE5=Montgomery - Buraky
TTITLE6=Drobek - Bajecna zenska
TTITLE7=J.Rymes - Blaznova ukolebavka
TTITLE8=P.Paskova - Boty proti lavce
TTITLE9=J.Cerny - Balicek karet
TTITLE10=P.Paskova - Blativa cesta
TTITLE11=Drobek - Boty z kuze toulavejch psu
TTITLE12=J.Zoch - Blizzard
TTITLE13=P.Paskova,Lava - Bodlaky ve vlasech
TTITLE14=Montgomery - Bonanza
TTITLE15=M.Tucny - Biblickou krajinou
TTITLE16=Drobek - Cesty toulavy
TTITLE17=Harcovnici - Cesta na Nashville
TTITLE18=Drobek - Cizinec
TTITLE19=V.Martinova - Citadela citu
TTITLE20=Zpevnik
EXTD=YEAR: 2002
EXTT0=
EXTT1=
EXTT2=
EXTT3=
EXTT4=
EXTT5=
EXTT6=
EXTT7=
EXTT8=
EXTT9=
EXTT10=
EXTT11=
EXTT12=
EXTT13=
EXTT14=
EXTT15=
EXTT16=
EXTT17=
EXTT18=
EXTT19=
EXTT20=
PLAYORDER=
